Coordinates
version=1
nRows=24
nColumns=24
inDegrees=yes

Units are S.I. units (second, meters, Newtons, ...)
Angles are in degrees.

endheader
time	pelvis_tilt	pelvis_list	pelvis_rotation	pelvis_tx	pelvis_ty	pelvis_tz	hip_flexion_r	hip_adduction_r	hip_rotation_r	knee_angle_r	ankle_angle_r	subtalar_angle_r	mtp_angle_r	hip_flexion_l	hip_adduction_l	hip_rotation_l	knee_angle_l	ankle_angle_l	subtalar_angle_l	mtp_angle_l	lumbar_extension	lumbar_bending	lumbar_rotation
42.49800000	4.84455933	-1.84559258	-0.77772078	0.60102028	1.04559875	-0.02160049	-6.75609656	-2.90617367	-6.95037445	-14.57747194	11.48334191	-0.00000082	0.00000000	32.89815531	1.38076320	0.20135362	-16.21978125	2.19136291	0.00000249	0.00000000	-19.54310531	-0.47001089	-4.72635202
42.50000000	4.84455933	-1.84559258	-0.77772078	0.60102028	1.04559875	-0.02160049	-7.02758061	-2.90617367	-6.95037445	-14.47730025	11.38657903	-0.00000082	0.00000000	32.87538801	1.38076320	0.20135362	-15.49297438	2.02885768	0.00000249	0.00000000	-19.54310531	-0.47001089	-4.72635202
42.50200000	4.84455933	-1.84559258	-0.77772078	0.60102028	1.04559875	-0.02160049	-7.29133203	-2.90617367	-6.95037445	-14.38875132	11.28903663	-0.00000082	0.00000000	32.86041852	1.38076320	0.20135362	-14.79820876	1.87138671	0.00000249	0.00000000	-19.54310531	-0.47001089	-4.72635202
42.50400000	4.84455933	-1.84559258	-0.77772078	0.60102028	1.04559875	-0.02160049	-7.54731891	-2.90617367	-6.95037445	-14.31223275	11.19053190	-0.00000082	0.00000000	32.85345206	1.38076320	0.20135362	-14.13673122	1.71999150	0.00000249	0.00000000	-19.54310531	-0.47001089	-4.72635202
42.50600000	4.84455933	-1.84559258	-0.77772078	0.60102028	1.04559875	-0.02160049	-7.79541703	-2.90617367	-6.95037445	-14.24806775	11.09087907	-0.00000082	0.00000000	32.85455695	1.38076320	0.20135362	-13.50974419	1.57572744	0.00000249	0.00000000	-19.54310531	-0.47001089	-4.72635202
42.50800000	4.84455933	-1.84559258	-0.77772078	0.60102028	1.04559875	-0.02160049	-8.03552045	-2.90617367	-6.95037445	-14.19655111	10.98985917	-0.00000082	0.00000000	32.86389328	1.38076320	0.20135362	-12.91827990	1.43964906	0.00000249	0.00000000	-19.54310531	-0.47001089	-4.72635202
42.51000000	4.84455933	-1.84559258	-0.77772078	0.60102028	1.04559875	-0.02160049	-8.26781022	-2.90617367	-6.95037445	-14.15808789	10.88723741	-0.00000082	0.00000000	32.88158845	1.38076320	0.20135362	-12.36325527	1.31277918	0.00000249	0.00000000	-19.54310531	-0.47001089	-4.72635202
42.51200000	4.84455933	-1.84559258	-0.77772078	0.60102028	1.04559875	-0.02160049	-8.49201617	-2.90617367	-6.95037445	-14.13281491	10.78276360	-0.00000082	0.00000000	32.90744814	1.38076320	0.20135362	-11.84561830	1.19608755	0.00000249	0.00000000	-19.54310531	-0.47001089	-4.72635202
42.51400000	4.84455933	-1.84559258	-0.77772078	0.60102028	1.04559875	-0.02160049	-8.70825909	-2.90617367	-6.95037445	-14.12103372	10.67615663	-0.00000082	0.00000000	32.94152688	1.38076320	0.20135362	-11.36604572	1.09050252	0.00000249	0.00000000	-19.54310531	-0.47001089	-4.72635202
42.51600000	4.84455933	-1.84559258	-0.77772078	0.60102028	1.04559875	-0.02160049	-8.91657834	-2.90617367	-6.95037445	-14.12296909	10.56712145	-0.00000082	0.00000000	32.98365158	1.38076320	0.20135362	-10.92518608	0.99687038	0.00000249	0.00000000	-19.54310531	-0.47001089	-4.72635202
42.51800000	4.84455933	-1.84559258	-0.77772078	0.60102028	1.04559875	-0.02160049	-9.11723663	-2.90617367	-6.95037445	-14.13892660	10.45532950	-0.00000082	0.00000000	33.03377921	1.38076320	0.20135362	-10.52347121	0.91595694	0.00000249	0.00000000	-19.54310531	-0.47001089	-4.72635202
42.52000000	4.84455933	-1.84559258	-0.77772078	0.60102028	1.04559875	-0.02160049	-9.31012844	-2.90617367	-6.95037445	-14.16899136	10.34044688	-0.00000082	0.00000000	33.09172801	1.38076320	0.20135362	-10.16125286	0.84841833	0.00000249	0.00000000	-19.54310531	-0.47001089	-4.72635202
42.52200000	4.84455933	-1.84559258	-0.77772078	0.60102028	1.04559875	-0.02160049	-9.49533461	-2.90617367	-6.95037445	-14.21331404	10.22211460	-0.00000082	0.00000000	33.15713788	1.38076320	0.20135362	-9.83881969	0.79478519	0.00000249	0.00000000	-19.54310531	-0.47001089	-4.72635202
42.52400000	4.84455933	-1.84559258	-0.77772078	0.60102028	1.04559875	-0.02160049	-9.67308034	-2.90617367	-6.95037445	-14.27209161	10.09993566	-0.00000082	0.00000000	33.22983479	1.38076320	0.20135362	-9.55620649	0.75546168	0.00000249	0.00000000	-19.54310531	-0.47001089	-4.72635202
42.52600000	4.84455933	-1.84559258	-0.77772078	0.60102028	1.04559875	-0.02160049	-9.84348817	-2.90617367	-6.95037445	-14.34544332	9.97348888	-0.00000082	0.00000000	33.30924108	1.38076320	0.20135362	-9.31349660	0.73066888	0.00000249	0.00000000	-19.54310531	-0.47001089	-4.72635202
42.52800000	4.84455933	-1.84559258	-0.77772078	0.60102028	1.04559875	-0.02160049	-10.00648604	-2.90617367	-6.95037445	-14.43336796	9.84234389	-0.00000082	0.00000000	33.39496591	1.38076320	0.20135362	-9.11051339	0.72050501	0.00000249	0.00000000	-19.54310531	-0.47001089	-4.72635202
42.53000000	4.84455933	-1.84559258	-0.77772078	0.60102028	1.04559875	-0.02160049	-10.16217759	-2.90617367	-6.95037445	-14.53593665	9.70601722	-0.00000082	0.00000000	33.48641632	1.38076320	0.20135362	-8.94701884	0.72486382	0.00000249	0.00000000	-19.54310531	-0.47001089	-4.72635202
42.53200000	4.84455933	-1.84559258	-0.77772078	0.60102028	1.04559875	-0.02160049	-10.31116007	-2.90617367	-6.95037445	-14.65346148	9.56397884	-0.00000082	0.00000000	33.58317328	1.38076320	0.20135362	-8.82251451	0.74349297	0.00000249	0.00000000	-19.54310531	-0.47001089	-4.72635202
42.53400000	4.84455933	-1.84559258	-0.77772078	0.60102028	1.04559875	-0.02160049	-10.45294170	-2.90617367	-6.95037445	-14.78568970	9.41572401	-0.00000082	0.00000000	33.68431366	1.38076320	0.20135362	-8.73659124	0.77591745	0.00000249	0.00000000	-19.54310531	-0.47001089	-4.72635202
42.53600000	4.84455933	-1.84559258	-0.77772078	0.60102028	1.04559875	-0.02160049	-10.58739895	-2.90617367	-6.95037445	-14.93255611	9.26069279	-0.00000082	0.00000000	33.78898288	1.38076320	0.20135362	-8.68862931	0.82147937	0.00000249	0.00000000	-19.54310531	-0.47001089	-4.72635202
42.53800000	4.84455933	-1.84559258	-0.77772078	0.60102028	1.04559875	-0.02160049	-10.71436110	-2.90617367	-6.95037445	-15.09397405	9.09828597	-0.00000082	0.00000000	33.89619329	1.38076320	0.20135362	-8.67790236	0.87931715	0.00000249	0.00000000	-19.54310531	-0.47001089	-4.72635202
42.54000000	4.84455933	-1.84559258	-0.77772078	0.60102028	1.04559875	-0.02160049	-10.83405187	-2.90617367	-6.95037445	-15.27006560	8.92787477	-0.00000082	0.00000000	34.00528200	1.38076320	0.20135362	-8.70333938	0.94841240	0.00000249	0.00000000	-19.54310531	-0.47001089	-4.72635202
42.54200000	4.84455933	-1.84559258	-0.77772078	0.60102028	1.04559875	-0.02160049	-10.94617540	-2.90617367	-6.95037445	-15.46069959	8.74880405	-0.00000082	0.00000000	34.11523303	1.38076320	0.20135362	-8.76387860	1.02753229	0.00000249	0.00000000	-19.54310531	-0.47001089	-4.72635202
42.54400000	4.84455933	-1.84559258	-0.77772078	0.60102028	1.04559875	-0.02160049	-11.05081158	-2.90617367	-6.95037445	-15.66594750	8.56040025	-0.00000082	0.00000000	34.22518430	1.38076320	0.20135362	-8.85820965	1.11526913	0.00000249	0.00000000	-19.54310531	-0.47001089	-4.72635202
